<mxfile host="app.diagrams.net" modified="2023-12-03T06:19:26.012Z" agent="Mozilla/5.0 (Macintosh; Intel Mac OS X 10_15_7) AppleWebKit/537.36 (KHTML, like Gecko) Chrome/119.0.0.0 Safari/537.36" version="22.0.0" etag="EbI80-Ou9vwABEuk6u5R" type="github">
  <diagram name="Page-1" id="5ca7EPaK3nCQTlWzF7rS">
    <mxGraphModel>
      <root>
        <mxCell id="0" />
        <mxCell id="1" parent="0" />
      </root>
    </mxGraphModel>
  </diagram>
</mxfile>
